<svg width="102" height="37" viewBox="0 0 102 37" fill="none" xmlns="http://www.w3.org/2000/svg">
<path d="M30.3761 17.9901C32.0972 19.8375 32.9825 22.3403 32.8053 24.8573C32.7056 26.2774 32.5251 27.2068 32.2011 27.9639C31.296 30.0784 29.6334 31.7417 27.52 32.6473C25.9093 33.3375 23.4191 33.3664 17.94 33.3664C12.461 33.3664 9.97161 33.3375 8.36015 32.6473C6.24668 31.7417 4.58409 30.0784 3.67902 27.9639C3.3221 27.1301 3.1391 26.0976 3.04596 24.3995L3.04102 24.3097V24.2239H5.2394L5.24105 24.2792C5.31688 25.6647 5.45866 26.5339 5.70018 27.098C6.38186 28.6904 7.63396 29.9431 9.22564 30.6251C10.4366 31.1439 12.9086 31.167 17.94 31.167C22.9715 31.167 25.4436 31.1439 26.6545 30.6251C28.247 29.9431 29.4991 28.6904 30.1808 27.098C30.3992 26.5874 30.5328 25.8486 30.6135 24.7031C30.7478 22.7923 30.0752 20.8922 28.7688 19.4902C27.4812 18.1081 25.6678 17.3065 23.7818 17.2809V17.2792C21.1671 17.2792 19.0397 15.1508 19.0397 12.5349H21.238C21.238 13.9409 22.3772 15.0807 23.7826 15.0807V15.0823C26.2761 15.1079 28.6756 16.1643 30.3778 17.991L30.3761 17.9901ZM25.6389 10.6546C25.6431 10.6587 25.6471 10.6629 25.6513 10.667C25.9513 10.968 26.1302 11.3704 26.1772 11.7927C26.1978 11.9766 26.2192 12.219 26.239 12.5332H28.4407C28.3632 11.1774 28.2321 10.6926 28.1596 10.5243C27.7013 9.45384 26.8597 8.61102 25.7889 8.1525C24.9391 7.78799 21.5389 7.78799 17.9392 7.78799C14.3396 7.78799 10.9402 7.78799 10.0903 8.15168C9.01959 8.6102 8.17799 9.45301 7.71968 10.5235C7.65621 10.6719 7.53752 11.0876 7.45921 12.2075C7.36607 13.5311 7.81365 14.7945 8.71874 15.7668C9.61641 16.7301 10.8314 17.2644 12.1453 17.2768C14.7385 17.2513 16.8396 15.1335 16.8396 12.5332H14.6413C14.6413 13.9211 13.526 15.0518 12.1445 15.0774C11.4471 15.0658 10.8025 14.7797 10.3252 14.2675C9.84058 13.7472 9.60069 13.0701 9.65016 12.3625C9.66662 12.1316 9.68399 11.9452 9.70045 11.7968C9.74744 11.3721 9.92545 10.9688 10.2272 10.667C10.2313 10.6629 10.2346 10.6595 10.2387 10.6554C10.5437 10.3544 10.9484 10.1762 11.3738 10.1301C12.686 9.98821 15.5587 9.98821 17.9376 9.98821C20.3165 9.98821 23.1916 9.98821 24.503 10.1301C24.9284 10.1762 25.3315 10.3544 25.6356 10.6546H25.6389ZM32.8342 12.3584C32.741 10.6595 32.558 9.62705 32.2011 8.79408C31.296 6.67962 29.6343 5.01706 27.52 4.11072C25.9084 3.42047 23.4183 3.3916 17.94 3.3916C12.4619 3.3916 9.97161 3.42047 8.36015 4.11072C6.24668 5.01623 4.58409 6.67962 3.67902 8.79408C3.35508 9.55033 3.17455 10.4798 3.07481 11.9007C2.89759 14.4176 3.78288 16.9206 5.50399 18.7678C7.20616 20.5945 9.60483 21.6509 12.0991 21.6765V21.6781C13.5045 21.6781 14.6437 22.8179 14.6437 24.2239H16.8421C16.8421 21.608 14.7146 19.4795 12.1 19.4795V19.4779C10.214 19.4523 8.40052 18.6507 7.11301 17.2686C5.80651 15.8666 5.13389 13.9665 5.26825 12.0558C5.34903 10.9102 5.48256 10.1714 5.701 9.66082C6.38269 8.06838 7.63478 6.81569 9.2273 6.13368C10.4374 5.61495 12.9102 5.59186 17.9417 5.59186C22.9732 5.59186 25.4452 5.61495 26.6561 6.13368C28.2478 6.81569 29.4999 8.06838 30.1816 9.66082C30.4231 10.2249 30.5649 11.0941 30.6407 12.4796L30.6424 12.5349H32.8407V12.4491L32.8358 12.3592L32.8342 12.3584ZM17.94 20.4765C18.4799 19.6362 19.1971 18.9196 20.037 18.3786C19.1971 17.8384 18.4808 17.1209 17.94 16.2806C17.4001 17.1209 16.683 17.8376 15.8431 18.3786C16.683 18.9188 17.3993 19.6362 17.94 20.4765ZM10.2412 26.1017C10.2412 26.1017 10.2329 26.0934 10.2289 26.0902C9.92793 25.7891 9.74992 25.3868 9.70293 24.9637C9.68234 24.7797 9.66091 24.5373 9.64114 24.2231H7.43942C7.51691 25.5789 7.64798 26.0638 7.72051 26.2321C8.17882 27.3025 9.02042 28.1453 10.0903 28.6038C10.9402 28.9683 14.3404 28.9683 17.94 28.9683C21.5397 28.9683 24.9391 28.9683 25.7889 28.6047C26.8597 28.1461 27.7013 27.3033 28.1596 26.2329C28.2231 26.0844 28.3418 25.6688 28.42 24.5488C28.5133 23.2252 28.0657 21.961 27.1606 20.9896C26.2629 20.0263 25.0479 19.4919 23.734 19.4795C21.1408 19.5051 19.0397 21.6229 19.0397 24.2231H21.238C21.238 22.8352 22.3533 21.7045 23.734 21.6789C24.4313 21.6905 25.076 21.9767 25.5532 22.4888C26.0379 23.0092 26.2778 23.6862 26.2283 24.3947C26.2118 24.6256 26.1945 24.8119 26.178 24.9604C26.131 25.3851 25.9529 25.7883 25.6513 26.0902C25.6471 26.0943 25.6439 26.0976 25.6398 26.1017C25.3348 26.4027 24.93 26.5817 24.5047 26.6271C23.1924 26.7681 20.3198 26.7681 17.9409 26.7681C15.562 26.7681 12.6869 26.7681 11.3754 26.6262C10.9501 26.5801 10.5453 26.4019 10.2412 26.1017Z" fill="#F8FFFD"/>
<path d="M42.1986 19.6069C42.1986 20.4761 42.3931 21.098 42.783 21.4724C43.1721 21.8468 43.7268 22.034 44.4456 22.034C44.9995 22.034 45.4339 21.9177 45.7488 21.686C46.0637 21.4534 46.236 21.1276 46.2656 20.7078L46.2879 20.6402H48.9388V20.7524C48.9388 21.8616 48.5266 22.753 47.7032 23.4269C46.8797 24.1014 45.7562 24.4388 44.3335 24.4388C42.8357 24.4388 41.6446 24.0082 40.761 23.1465C39.8773 22.2846 39.4355 20.9553 39.4355 19.1566V17.7407C39.4355 15.9874 39.8625 14.6728 40.7165 13.7962C41.5704 12.9196 42.7459 12.4816 44.2436 12.4816C45.7414 12.4816 46.8756 12.9236 47.737 13.8077C48.5983 14.6918 49.0287 16.003 49.0287 17.7414V19.2927H42.1986V19.6069ZM42.1986 17.3143V17.3819H46.2425V17.09C46.2425 15.6063 45.5757 14.865 44.2429 14.865C43.5842 14.865 43.0781 15.0522 42.7261 15.4266C42.3741 15.801 42.1986 16.4302 42.1986 17.3143ZM50.8486 20.8431V20.7532H53.4551V20.7978C53.4551 21.2324 53.6306 21.573 53.9834 21.8204C54.3354 22.0677 54.7962 22.1914 55.3649 22.1914C55.979 22.1914 56.458 22.0826 56.8025 21.8657C57.147 21.6488 57.3193 21.3222 57.3193 20.8877C57.3193 20.5281 57.1924 20.251 56.9377 20.0564C56.683 19.8617 56.256 19.719 55.6568 19.6292L54.4211 19.4271C53.2531 19.2325 52.3918 18.8729 51.8378 18.3485C51.2839 17.8239 51.007 17.0751 51.007 16.1012C51.007 14.9919 51.4149 14.1121 52.231 13.4597C53.0471 12.8082 54.0922 12.4816 55.3649 12.4816C56.2337 12.4816 57.0012 12.6276 57.668 12.9196C58.3349 13.2115 58.8509 13.6164 59.2185 14.1335C59.5854 14.6506 59.7691 15.2311 59.7691 15.8752V16.0096H57.1858V15.942C57.1858 15.5371 57.0251 15.2229 56.7028 14.9977C56.3805 14.7726 55.9354 14.6605 55.3658 14.6605C54.7962 14.6605 54.3626 14.7726 54.0626 14.9977C53.7625 15.2229 53.6134 15.5223 53.6134 15.8967C53.6134 16.2413 53.7296 16.5111 53.9612 16.7057C54.1936 16.9003 54.5712 17.0356 55.0954 17.1106L56.4662 17.3127C57.6343 17.4776 58.5104 17.8371 59.0949 18.3913C59.6793 18.9455 59.9711 19.71 59.9711 20.6839C59.9711 21.883 59.5367 22.8083 58.6679 23.4598C57.7991 24.1114 56.6682 24.4379 55.2751 24.4379C53.882 24.4379 52.8714 24.1122 52.062 23.4598C51.2534 22.8083 50.8486 21.935 50.8486 20.8415V20.8431ZM66.553 25.3162C66.2538 26.1706 65.8227 26.7924 65.2614 27.1816C64.7 27.5708 63.9549 27.7663 63.0259 27.7663H62.0598V25.2716H62.9361C63.3853 25.2716 63.7183 25.1933 63.936 25.0358C64.1527 24.8783 64.3291 24.5823 64.4643 24.1476L64.5088 23.9901L60.5547 12.6169H63.4974L65.789 19.9665L68.1249 12.6169H70.9778L66.553 25.3162ZM75.1125 12.6169V13.6733C75.457 13.2841 75.8725 12.988 76.3596 12.7851C76.8468 12.5831 77.3521 12.4816 77.8763 12.4816C79.0748 12.4816 80.003 12.856 80.6624 13.6057C81.321 14.3545 81.6508 15.3812 81.6508 16.685V24.3051H78.8646V17.0223C78.8646 16.3626 78.6998 15.8538 78.37 15.4942C78.0403 15.1346 77.5985 14.9549 77.0446 14.9549C76.4907 14.9549 76.0596 15.1346 75.7076 15.4942C75.3557 15.8538 75.1801 16.3634 75.1801 17.0223V24.3051H72.394V12.6169H75.1125ZM83.641 12.6169C84.1811 11.7765 84.8983 11.0599 85.7387 10.5189C84.8983 9.97876 84.182 9.26124 83.641 8.4209C83.1017 9.26124 82.3843 9.97793 81.5444 10.5189C82.3843 11.0591 83.1008 11.7765 83.641 12.6169Z" fill="#F8FFFD"/>
</svg>
